PathFileType	4	(X/Y/Z)	E:\3-PhD\Data\MocapData\ElaboratedData\015\pre\dynamicElaborations\RunL1\RunL1.trc
DataRate	CameraRate	NumFrames	NumMarkers	Units	OrigDataRate	OrigDataStartFrame	OrigNumFrames
200	200	4	61	mm	200	2.560000e+02	124
Frame#	Time	FHD			LBHD			RBHD			C7			T10			CLAV			LSHO			LUUPA			LMUPA			LDUPA			LLEP			LMEP			LRAD			LUL			LRFIN			RSHO			RUPA1			RMUPA			RDUPA			RLEP			RMEP			RRAD			RUL			RUFIN			LASI			RASI			USACR			LSACR			RSACR			LTHI1			LTHI2			LTHI3			LTHI4			LLFC			LMFC			LTIB1			LTIB2			LTIB3			LTIB4			LLMAL			LMMAL			LHEE			LMT1			LMT5			LMT2			RTHI			RTHI2			RTHI3			RTHI4			RLFC			RMFC			RTIB1			RTIB2			RTIB3			RTIB4			RLMAL			RMMAL			RHEE			RMT1			RMT2			RMT5		
		X1	Y1	Z1	X2	Y2	Z2	X3	Y3	Z3	X4	Y4	Z4	X5	Y5	Z5	X6	Y6	Z6	X7	Y7	Z7	X8	Y8	Z8	X9	Y9	Z9	X10	Y10	Z10	X11	Y11	Z11	X12	Y12	Z12	X13	Y13	Z13	X14	Y14	Z14	X15	Y15	Z15	X16	Y16	Z16	X17	Y17	Z17	X18	Y18	Z18	X19	Y19	Z19	X20	Y20	Z20	X21	Y21	Z21	X22	Y22	Z22	X23	Y23	Z23	X24	Y24	Z24	X25	Y25	Z25	X26	Y26	Z26	X27	Y27	Z27	X28	Y28	Z28	X29	Y29	Z29	X30	Y30	Z30	X31	Y31	Z31	X32	Y32	Z32	X33	Y33	Z33	X34	Y34	Z34	X35	Y35	Z35	X36	Y36	Z36	X37	Y37	Z37	X38	Y38	Z38	X39	Y39	Z39	X40	Y40	Z40	X41	Y41	Z41	X42	Y42	Z42	X43	Y43	Z43	X44	Y44	Z44	X45	Y45	Z45	X46	Y46	Z46	X47	Y47	Z47	X48	Y48	Z48	X49	Y49	Z49	X50	Y50	Z50	X51	Y51	Z51	X52	Y52	Z52	X53	Y53	Z53	X54	Y54	Z54	X55	Y55	Z55	X56	Y56	Z56	X57	Y57	Z57	X58	Y58	Z58	X59	Y59	Z59	X60	Y60	Z60	X61	Y61	Z61	
364	1.815000	309.331058	1579.449851	233.934973	171.664672	1610.263053	213.236624	156.343806	1605.778106	341.784463	26.329966	1478.846178	287.035432	-58.038698	1152.311847	256.410658	159.245570	1373.153865	248.343869	57.337196	1479.276647	94.802337	-36.080192	1324.172475	-7.844316	-17.656600	1279.293866	-5.406124	-68.632332	1268.777489	-33.737607	-122.099839	1207.323941	-50.449286	-143.212641	1182.817045	44.347605	45.895518	1011.576313	-11.834639	68.132987	1052.855101	45.503787	145.249847	1009.991588	46.272895	103.031589	1430.606346	449.460000	69.958981	1261.724891	537.532025	101.743459	1227.284328	526.372012	62.893341	1194.661580	557.677691	69.745078	1084.344231	565.760481	14.353179	1073.462466	502.791268	268.602798	1087.082129	386.376200	289.181099	1019.686087	417.217742	348.628228	1093.431954	371.974565	66.812300	966.315193	120.523670	73.895235	957.869195	378.389169	-92.219032	1052.583344	256.084131	-102.700198	1020.504003	229.641876	-101.157277	1023.963496	287.283208	85.314210	689.729215	51.591445	153.886358	640.386969	44.333244	197.266086	661.841805	48.542640	163.927985	583.516778	68.232818	189.641432	517.663601	83.908601	212.071849	514.381637	213.327708	126.885989	378.371321	126.572405	58.893917	388.215580	72.481163	78.054505	361.134044	100.502411	14.182252	313.637637	133.277916	-124.577603	279.661164	123.543234	-106.108430	267.691496	206.533256	-210.145000	298.169839	178.577541	-70.775271	136.134488	192.374098	-118.672395	145.969301	97.192015	-69.598266	136.114159	142.964011	34.186127	765.527833	437.526337	65.883156	710.545744	426.920519	93.201890	710.389591	405.329481	30.664860	631.575937	427.564494	-46.064466	445.902250	385.819624	-28.224748	444.810170	259.087000	-122.418357	251.261576	318.615580	-228.134302	235.507011	348.235367	-194.339403	204.272671	333.067031	-218.135376	167.335959	296.935032	-301.687780	144.223440	317.393894	-285.533604	160.417619	237.978371	-401.079895	136.937828	261.371600	-200.813622	51.521719	248.104925	-210.335578	51.820771	290.353356	-257.189578	32.809407	341.535276	
365	1.820000	332.356291	1584.452684	232.099241	194.509483	1614.108028	211.232851	179.081411	1609.592365	339.804738	50.209151	1481.991758	286.800656	-33.309449	1155.114506	258.184938	182.444312	1376.664577	246.384515	77.744850	1483.063813	94.818866	-18.760745	1330.434067	-7.323291	-0.385171	1285.460021	-6.056990	-52.118166	1275.387229	-33.117012	-105.831075	1213.928953	-48.938043	-125.405995	1189.123206	46.192282	63.496007	1018.773552	-10.662274	86.757999	1061.752411	45.106201	164.508833	1019.148570	44.352596	128.736762	1435.070891	448.085652	99.224864	1265.984284	536.675252	130.283949	1231.524724	523.969778	92.966912	1198.699068	556.768340	98.477059	1088.533954	564.003903	40.607018	1077.951310	502.904634	293.440874	1096.882297	381.551478	315.345219	1029.200155	410.642249	372.976707	1104.954269	366.004156	90.656693	970.329564	120.318881	99.885149	958.746126	377.395971	-67.091813	1055.828328	258.045115	-78.049566	1023.964769	231.457963	-75.771352	1026.966427	289.091332	113.123047	694.788269	53.893203	182.855272	646.888694	47.544995	225.627335	669.562270	51.261076	193.942622	590.346311	71.564099	220.802817	524.918928	87.678497	241.675167	524.852943	216.657186	164.686717	381.256361	130.117890	96.697606	387.263848	75.324613	117.103502	361.346039	103.370702	55.768670	310.402845	135.547878	-81.058535	268.215907	124.605537	-63.056325	258.065082	207.693791	-168.373051	282.005369	178.336720	-19.504467	128.971725	195.286064	-66.871383	134.889102	99.664283	-17.937257	128.857749	146.119844	55.211259	767.026447	436.778433	85.272266	711.275090	426.239798	112.588432	710.278151	404.671675	47.928735	633.267389	427.267601	-34.837480	449.587338	387.224843	-17.141539	447.170640	260.213813	-114.419295	255.015610	321.198074	-220.236433	240.820633	350.781365	-186.762456	208.929386	335.953396	-210.761987	171.904171	300.068027	-294.799230	149.046105	320.529719	-278.460943	165.236393	241.000582	-393.847478	146.195369	264.139098	-200.115804	51.223898	248.329296	-209.563510	51.690309	290.655535	-256.173133	33.453858	341.709652	
366	1.825000	355.342915	1589.476144	230.193872	217.323914	1617.912706	209.148044	201.779201	1613.405540	337.733553	74.163718	1485.136334	286.496767	-8.561497	1157.965572	260.021684	205.658905	1380.210799	244.451117	98.412117	1486.806109	94.873879	-0.988078	1336.666788	-6.570556	17.283083	1291.594324	-6.414257	-35.134445	1281.977451	-32.305096	-89.176656	1220.563392	-47.255776	-107.257299	1195.486404	48.243628	81.434342	1025.866376	-9.484198	105.608436	1070.378772	44.699109	183.970738	1028.098440	42.468902	154.474445	1439.651811	446.638334	128.323839	1270.466896	535.650035	158.671340	1235.987601	521.572022	122.823981	1202.991829	555.759088	126.962265	1092.992154	562.342559	66.643410	1082.675150	503.170436	317.928358	1106.395713	376.959812	341.067939	1038.465236	404.355597	396.930741	1116.105543	360.306903	114.915567	974.367384	120.311258	125.928316	959.708441	376.446377	-41.805722	1059.152201	259.858504	-53.214867	1027.537928	233.086696	-50.200910	1029.986114	290.685743	140.737280	699.960850	56.132078	211.418870	653.292126	50.840914	253.615857	677.039746	54.052241	223.319944	597.063869	74.983436	251.136537	531.922816	91.488427	270.107072	535.054674	219.892061	202.030396	384.207122	133.660735	134.264791	386.273335	78.193694	155.936927	361.642269	106.243555	97.427364	307.286308	137.900657	-36.863123	256.875343	125.751452	-19.527652	248.499927	208.936364	-125.640660	265.686071	178.145445	32.204515	122.303229	198.208582	-14.260598	124.527318	102.139700	34.259541	122.166866	149.309410	76.363505	768.682025	436.081260	104.739783	712.204080	425.686520	132.085426	710.338244	404.217074	65.281305	635.234857	427.053078	-23.391840	453.731098	388.813364	-5.896973	449.893745	261.510662	-105.932494	259.164442	324.068420	-211.810747	246.239082	353.528762	-178.566162	213.733359	339.107970	-202.632381	176.517197	303.490514	-287.180767	153.673825	323.832716	-270.404027	169.772558	244.220214	-385.617323	155.543968	267.015722	-199.238416	51.003337	248.611643	-208.616920	51.579646	291.013538	-254.991773	34.230442	341.947662	
367	1.830000	378.268897	1594.479755	228.219472	240.081657	1621.627625	206.986191	224.421050	1617.171895	335.576023	98.188169	1488.240080	286.140347	16.193893	1160.831474	261.921790	228.913285	1383.797296	242.566228	119.359235	1490.457673	94.953946	17.252583	1342.788696	-5.628181	35.346915	1297.604572	-6.493503	-17.685908	1288.472631	-31.327941	-72.134080	1227.169675	-45.411001	-88.756673	1201.844333	50.471859	99.752836	1032.832803	-8.364181	124.703688	1078.692899	44.300857	203.648058	1036.786147	40.656135	180.242467	1444.311910	445.122904	157.197426	1275.138732	534.487493	186.871515	1240.644701	519.233253	152.374149	1207.512423	554.668075	155.167684	1097.686940	560.822306	92.501812	1087.606122	503.554671	342.089737	1115.556950	372.596933	366.370220	1047.407592	398.356333	420.528629	1126.808062	354.901038	139.535621	978.455861	120.470617	151.998205	960.753690	375.551731	-16.387648	1062.533568	261.521212	-28.219729	1031.191293	234.530216	-24.488206	1033.006502	292.067429	168.176127	705.232948	58.296400	239.589717	659.557626	54.202488	281.258906	684.224250	56.925450	252.059206	603.615782	78.466246	280.670258	538.588314	95.309381	297.394634	544.738826	222.981037	238.929617	387.176435	137.197320	171.638532	385.214920	81.073615	194.572980	361.987682	109.127916	139.166276	304.295444	140.356785	8.007832	245.722236	126.980562	24.493462	239.027830	210.277278	-81.920686	249.321348	178.017379	84.307967	116.170358	201.135332	39.092142	114.974990	104.610984	86.928327	116.100236	152.526078	97.636390	770.476134	435.444286	124.278608	713.314631	425.259910	151.687342	710.562619	403.976143	82.714628	637.458537	426.902134	-11.764554	458.321796	390.508913	5.531301	452.960002	262.920291	-96.948892	263.663589	327.210623	-202.870873	251.718980	356.460927	-169.756618	218.655582	342.520411	-193.756269	181.130251	307.204552	-278.831805	158.038529	327.300453	-261.367367	173.979600	247.660706	-376.382203	164.935238	270.071642	-198.115398	50.894643	248.987361	-207.430171	51.506352	291.453256	-253.617078	35.191842	342.281777	
